<svg xmlns="http://www.w3.org/2000/svg" version="1.1" xmlns:xlink="http://www.w3.org/1999/xlink" xmlns:svgjs="http://svgjs.dev/svgjs" width="2000" height="2250" viewBox="0 0 2000 2250"><g transform="matrix(1,0,0,1,0.000012850225743932242,0)"><svg viewBox="0 0 320 360" data-background-color="#ffffff" preserveAspectRatio="xMidYMid meet" height="2250" width="2000" xmlns="http://www.w3.org/2000/svg" xmlns:xlink="http://www.w3.org/1999/xlink"><g id="tight-bounds" transform="matrix(1,0,0,1,0.0000020560361235766322,0)"><svg viewBox="0 0 320 360" height="360" width="320"><g><svg></svg></g><g><svg viewBox="0 0 320 360" height="360" width="320"><g><path transform="translate(-15.58119,4.24857) scale(3.51065,3.51065)" d="M51.5 85.2c-0.4-0.5-0.8-0.2-0.8-0.5-2.4 0.6-6.9-1-8.8-0.8 0.4-0.6-0.6-0.5-0.6-0.9-0.4 0.6-0.8 0-1.4 0.2-0.6-1.5-3-0.4-3.3-2.3-1.4 0-1.9-0.8-3.3-1.6 0.1-0.1 0.2-0.1 0.3-0.2-0.7-0.1-0.7-0.5-1.3-0.5l0.2-0.4c-1.1-0.2-1.5-1.9-3.1-2.5-0.5-0.1-1.6-1.8-2.2-2.2-0.3-0.2-0.8-0.2-0.1-0.3-0.1-0.1-0.1-0.3 0-0.4-0.7-0.2-0.8-0.8-1.7-1.1-0.1-0.3 0.2-0.5 0-0.7-0.2-0.1-0.5 0.1-0.7 0-0.1 1.8 1.9 2 2.5 3.5-0.2-0.2-0.5-0.8-0.7-0.4-0.1 0.3 0.8 1.4 0.8 0.8-0.3 0.2-0.4-0.3-0.2-0.4 0.3 0.5 0.9 0.4 0.9 0.8-0.3 0.3-0.7-0.3-0.6 0.2 0.9 0.5 0.8 1 1.3 1.7-0.4-0.5-0.5 0.4-0.9 0-0.1-1.5-1.8-1.2-1.8-2.7-0.2-0.5-0.4-0.1-0.7-0.3 0.4-0.4-1.2-1.8-1.2-1.3-0.5-0.6-0.2-0.8-0.3-1.2-0.4-0.1-0.1 0.4-0.4 0.1 0.4-0.7-0.5-1.6-1.1-2.3l0.4-0.2c-0.7-0.4-0.8-1.2-1.3-2.1-0.6 0.9 1.2 2.9 0.9 3.3 0 0.1 0.7 0.9 0.9 1.3 0.8 1.4 1.4 3.1 2.5 3.9-0.2-0.1-0.1-0.7 0.2-0.4 0 0.3-0.2 0.6-0.2 0.9 0.6 0.6 1.1 1.1 1.7 1.7-1.3-0.8-2.6-1.6-3.5-2.8 0.5-0.1 1 0.8 1.4 0.7-1-0.8-0.7-1.1-1.1-2.1-0.4-0.3 0.1 0.4-0.3 0.5-1.3-1.2-2.3-1.9-2.9-3 0.1-0.1 0.2-0.2 0.2-0.4-0.1-0.1-0.1-0.1-0.2-0.2 0.6 0.6 0.8 1.1 1.5 1.2-0.3-0.3 0-0.4-0.4-0.7-0.2-0.4-0.5 0.2-0.7-0.1 0.2-0.3 0-0.7 0-1-0.2 0-0.4 0-0.5-0.3-0.2-0.1-0.3 0-0.4 0.2-0.1-0.1-0.1-0.3-0.2-0.4v-0.1c-0.1-0.1-0.2-0.3-0.3-0.4-0.8-2.1-1.3-4.9-2.4-6.7 0.3-1.2-0.2-3.6-0.5-4.2 0.3-0.5 0.1-2.8-0.1-3.2-0.5 0.2 0.1 1.3-0.4 1.6-0.5-2.2 0.3-4.7 0.1-6.7 0.2 0 0.4 0 0.4-0.1-0.3-0.3 0.2-0.9 0.1-1.6 0.4-0.9-0.9 1.3-0.9 2.2-0.1 0.2-0.5 0-0.4 0.5 0 0.7 0.2 2.1-0.2 3.1-0.2 0-0.2-0.2-0.4-0.1-0.1 0.5-0.2 1.1-0.3 1.6-0.1-0.2-0.2-0.5-0.2-0.6-0.5-2.5 0-5.4-0.2-7.5 0.4 0 0.4-0.6 0.7-0.8-0.1 0.8-0.3 1.8 0.2 2 0.4-3.9 1.2-8.2 3-12.4 1.3-3.1 3.2-6.2 5.5-8.7 0.2 0.3-0.1 1 0 1.3 2-2.1 3.3-4.6 5.5-6 0.1 0.5-0.9 0.9-0.9 1.3 0.9-0.9 1.2-0.6 2.2-0.9 0.3-0.4-0.4 0-0.5-0.4 0.6-0.4 1-0.9 1.4-1.2 0 0.1-0.1 0.1-0.1 0.2 1.1-0.3 1.2-0.9 2-1.1-0.1-0.1-0.3-0.2-0.6-0.1 0.2-0.1 0.5-0.3 0.8-0.4-0.1 0-0.1 0.1-0.2 0.1 0.6-0.3 0.1 0.1 0.1 0.3 0.1 0 0.2-0.1 0.2-0.1-0.6 0.4-1 0.6-1.2 1.3 0.3-0.2 0.4 0 0.8-0.3 0.4-0.2-0.1-0.5 0.2-0.7 0.3 0.2 0.7 0.1 1 0.1 0-0.2 0.1-0.4 0.3-0.5 0.1-0.2 0-0.3-0.1-0.3 0.1-0.1 0.2-0.1 0.4-0.2 0 0 0.1 0 0.1 0.1 1.7-0.8 3.6-1.5 5.4-2.1 1.1-0.1 2.5-0.1 3.1-0.8-0.2 0-0.4 0.1-0.5 0 0.1 0 0.3-0.1 0.4-0.1 0.2 0.2 0.5 0 0.2 0.4 0.1 0 0.1 0 0.2-0.1 0 0.1 0 0.1 0.1 0.2 0.1 0 0.2-0.1 0.3-0.3 0.1 0 0.2 0 0.3-0.1l-0.1 0.1c0.8-0.2 1.5-0.1 2.6-0.3 0-0.1 0-0.2 0-0.3 0.2 0 0.3-0.1 0.5-0.1v0.1c0.4-0.2 0.8 0.2 0.8 0 0.1 0 0.1 0 0.2 0 0 0.2-0.1 0.3-0.1 0.4 0.5 0 0.8 0 1-0.3-0.1-0.1-0.2-0.1-0.3-0.1 0.2 0 0.4-0.1 0.6-0.2 0.3 0.1 0.4 0.2 0.4 0.6 0.5-0.9 2.1 0.2 2.8 0 0.3 0 0.2-0.4 0.4-0.6 0.1 0 0.2 0 0.3 0 0.5 0.4 1.2 0.8 2.1 0.9-0.8-0.2 0.1-0.3 0.2-0.4-0.2 0-0.2-0.1-0.2-0.2 0.3 0 0.6 0.1 0.9 0.1 0 0.2 0.1 0.3 0.3 0.3 0.2 0 0.2-0.1 0.2-0.3 0.3 0 0.5 0 0.8 0.1-0.1 0.4 0.5 0.5 0.7 0.8-0.8-0.2-1.7-0.5-2 0 3.2 0.7 6.7 1.7 10.1 3.4 0 0 0 0 0 0.1h0.1c0.6 0.3 1.2 0.6 1.8 0.9 0.4 0.2 0.7 0.4 1.1 0.7 0 0.1 0 0.2 0.2 0.2h0.1c0.4 0.3 0.8 0.5 1.2 0.8 0.4 0.6 0.8 1.4 1.5 1.2 1.5 2.3 3.1 3.2 4.4 5.6 0.1-0.4 0.4 0.9 0.9 1-0.8-0.1 0.5 0.5-0.3 0.4 0.7 0.7 0.9 1 1 1.8-0.2-0.4-0.3-0.5-0.4-0.1-0.1 0.6 0.7-0.1 1 0.5-0.6 0-0.4 0.4-0.3 0.9 0.3-0.3 0.2-0.6 0.5-0.5 0.4 0.4-0.2 0.5-0.1 0.8 0.3-0.4 0.4-0.2 0.8 0-0.5 0.1 0.3 0.8-0.3 0.5 0.4 0.5 0.5 0.8 0.3 1.3-0.4-0.6-0.1-1-0.7-0.9 1.2 1 0.6 3.3 2 3.5-0.9 0.2 0 0.6-0.5 0.7 0.6 0.2 0.3 1 1 1.2-0.1 0.5-0.3 0.8-0.4 1.3 0.3 0.4 0.4 1.2 0.9 1.3-0.3 0.3-0.1 1.1-0.4 1.4 0.4-0.2 0.6-0.2 0.9 0.2-0.5 0.4-0.1 0.8-0.4 0.9 0.9 2.3-0.2 7 0.3 8.8-0.6-0.3-0.4 0.7-0.8 0.7 0.7 0.3 0.1 0.8 0.4 1.3-1.4 0.8 0 3-1.9 3.5 0.2 1.4-0.6 2-1.2 3.5-0.1-0.1-0.1-0.2-0.2-0.3-0.1 0.7-0.5 0.8-0.3 1.4l-0.4-0.2c0 1.1-1.7 1.7-2.1 3.4-0.1 0.5-1.6 1.8-2 2.5-0.2 0.3-0.1 0.8-0.3 0.1-0.1 0.1-0.3 0.1-0.4 0.1-0.1 0.7-0.7 0.9-0.9 1.8-0.2 0.1-0.5-0.2-0.7 0.1 0 0.2 0.2 0.5 0.1 0.7 1.8-0.1 1.8-2.2 3.2-2.9-0.1 0.3-0.7 0.6-0.3 0.8 0.3 0 1.2-1 0.7-0.9 0.3 0.2-0.3 0.4-0.4 0.3 0.5-0.4 0.3-0.9 0.7-1 0.3 0.2-0.3 0.7 0.3 0.6 0.4-0.9 0.9-1 1.5-1.5-0.4 0.4 0.5 0.5 0.1 0.9-1.5 0.3-1 2-2.5 2.2-0.4 0.3-0.1 0.4-0.2 0.7-0.5-0.3-1.6 1.4-1.2 1.3-0.5 0.5-0.8 0.3-1.2 0.4-0.1 0.4 0.4 0.1 0.2 0.4-0.7-0.3-1.6 0.7-2.2 1.4l-0.3-0.3c-0.3 0.8-1.1 0.9-2 1.5 1 0.5 2.7-1.6 3.2-1.3 0.1 0 0.9-0.8 1.2-1.1 1.3-1 2.9-1.8 3.5-2.9-0.1 0.2-0.7 0.2-0.4-0.1 0.3-0.1 0.6 0.1 0.9 0.1 1.6-2.2 3.6-4 5.1-6.6 0.1-0.1 0.2-0.3 0.3-0.5-0.2 0.6-0.5 1.1-0.7 1.7-1.6 1.1-2.2 4.3-4.1 4.8 0.1 1.1-0.9 1.4-1.4 2.7-0.3 0.4-0.5-0.3-0.8 0.2 0.3 1.4-2.5 1.3-2.4 2.6-0.2 0.1-0.5 0.2-0.7 0.4h-0.1c-0.1 0.1-0.1 0.1-0.2 0.2-0.5 0.3-0.9 0.6-1.3 0.9-1.4 0.8-3.3 1.4-4.8 2.2v-0.1c-0.4 0.2-0.9 0.1-0.8 0.5-0.3 0.2-0.6 0.4-0.9 0.6-0.1 0-0.1 0-0.2 0 0 0-0.1-0.1-0.2-0.1-0.2 0-0.2 0-0.3 0.1-1.3 0.1-3 0.7-3.5 1.1-0.5-0.3-2.8 0.2-3.2 0.4 0.2 0.3 0.8 0 1.3 0-0.3 0.1-0.6 0.2-0.7 0.4-0.1 0-0.1 0-0.2 0-0.1-0.3-0.4 0-0.5-0.1h0.1c-0.1-0.4-0.4-0.6-0.9-0.5 0 0.2 0 0.3-0.1 0.5 0.2 0 0.8-0.3 0.8 0-0.1 0-0.1 0.1 0 0.1-0.2 0.2-0.5 0.2-0.7 0.3-0.4 0-0.9 0-1.3 0-0.1-0.1-0.2-0.1-0.4-0.2-0.1 0.1-0.3 0.1-0.4 0.2-0.6 0-1.3 0.1-1.8 0.2 0-0.2 0-0.4-0.2-0.4-0.3 0.4-0.9-0.1-1.6 0.1-0.7-0.2 0.4 0.3 1.4 0.5-0.1 0.1-0.2 0.2-0.5 0.3M37.5 86.6c-1.4-1.3-4.3-1.9-4.8-2.9-0.8-0.1-2-1.6-3-1.8 0.5 0 0.1-0.3 0-0.5-0.2 0.2-0.4 0.3-0.6 0.3 0-0.8-0.8-1.3-1.5-1.8 0.5 0.3 0.9 0.5 1.5 0.6 0-0.2 0-0.4 0.2-0.4 0.7 0.7 1.5 1.4 2.4 2.1 1.2 1.1 7.4 3.9 8.5 4.4 0 0-0.2 0.4-0.1 0.4 0.5 0.3 0.9-0.3 1 0.4-1.6 0.2-2.2-0.9-3.6-0.8M83.6 63.4v0.1 0c-0.1 0 0-0.1 0-0.1M43.2 17.1c-0.1 0.1-0.2 0.1-0.2 0.1 0-0.1 0.1-0.1 0.2-0.1M41.3 17.6c0 0.1 0 0.1 0 0 0 0.1 0 0.1 0 0 0 0.1 0 0 0 0M34.7 19.7v0c0.1-0.1 0.1-0.1 0.2-0.1-0.1 0-0.2 0.1-0.2 0.1M50.7 16.4c-0.2 0-0.3 0-0.4-0.1 0.1 0 0.2 0 0.3 0h0.1c0 0 0 0 0 0.1M52.5 16.6c-0.1-0.1-0.4-0.2-0.7-0.2 0-0.1 0.1-0.2 0.1-0.2 0.1 0 0.2 0 0.3 0 0 0 0.1 0 0.1 0.1 0 0 0 0 0-0.1 0.1 0 0.1 0 0.2 0 0.1 0.2 0.2 0.3 0 0.4M55.8 16.9c-0.5 0.1-0.8-0.1-1.3-0.4 0.3 0 0.7 0.1 1 0.2 0.1 0 0.2 0.1 0.3 0.2M91.4 31.1c-0.2 0.1-0.3 0.1-0.5-0.3-1.6-3.4-4.5-8.3-8.7-12.4-4.1-4.2-9.6-7.6-14.6-9.4 0.3 0.1 0.7 0.3 0.5 0.5-4.4-1.7-8.6-2.7-12.6-3.1-10.8-1.7-22.1 0.6-30.8 6.2 0.1 0.2 0.1 0.3-0.2 0.5-3.2 2-7.7 5.5-11.3 10.1-3.6 4.6-6.4 10.4-7.6 15.6 0.1-0.3 0.2-0.8 0.4-0.6-2.6 10.3-1.9 19.1 1.7 26.7 0.2-0.2-0.5-1.2 0.1-1.1 0.4 1.1 0.9 2.3 1.5 3.4 0.7 1.6 1.5 3.7 2.6 4.2-2.8-5.5-4.7-11.8-4.9-17.4 0.4 0.8 0.3 2.5 0.9 3.2 0.2-3.8-0.7-8.9 0.6-12.5-0.3 1.9-0.5 4.5-0.3 7.1 0 1.9 0.9 7.2 1.5 7.7-0.1-0.1-0.1-0.6 0-0.6 0.3 0.6-0.4 0.9 0.1 1 0-0.2 0.1-0.2 0.2-0.2 1 2.2 2.3 5.6 3.3 7.3 1.2 2.2 2.8 4.2 4.6 6 0 0.1 0.1 0.1 0.1 0.2 0.2 0.5 0.9 1.1 1.1 1.5 0.1 0.2-0.1 0.5 0 0.7 1.5 2.8 3.7 5.6 6.4 7.8 1.7 2 4.4 4.1 7.7 5.9 3.2 1.7 6.9 3.1 10.3 3.9 2.4 0.6 5.3 0.7 7.1 1.1 2.4 0.5 6.6-0.2 8.7-0.6 12.6-1.9 25.1-10.5 31.4-22.9 6.5-12.5 6.3-27.8 0.7-39.5" fill="#fe6e00" fill-rule="nonzero" stroke="none" stroke-width="1" stroke-linecap="butt" stroke-linejoin="miter" stroke-miterlimit="10" stroke-dasharray="" stroke-dashoffset="0" font-family="none" font-weight="none" font-size="none" text-anchor="none" style="mix-blend-mode: normal" data-fill-palette-color="tertiary"></path></g><g transform="matrix(1,0,0,1,96.3880729422271,108)"><svg viewBox="0 0 127.2238541155458 144" height="144" width="127.2238541155458"><g><svg viewBox="0 0 127.2238541155458 144" height="144" width="127.2238541155458"><g><svg viewBox="0 0 160 181.09811371596143" height="144" width="127.2238541155458"><g transform="matrix(1,0,0,1,0,134.78056030163384)"><svg viewBox="0 0 160 46.3175534143276" height="46.3175534143276" width="160"><g id="textblocktransform"><svg viewBox="0 0 160 46.3175534143276" height="46.3175534143276" width="160" id="textblock"><g><svg viewBox="0 0 160 46.3175534143276" height="46.3175534143276" width="160"><g transform="matrix(1,0,0,1,0,0)"><svg width="160" viewBox="3.5 -34.15 119.34 34.55" height="46.3175534143276" data-palette-color="#fe6e00"><path d="M8.5-13.3L7.55 0 3.5 0 5.95-33.7 11.1-33.7 15.55-21.4 20.95-5.7Q23.85-13.9 26.65-21.4L26.65-21.4 31.3-33.7 36.45-33.7 39.4 0 35.35 0 34.2-13.3 33-28.25Q30.35-20.85 27.55-13.3L27.55-13.3 22.85-0.75 19-0.75 14.55-13.3 9.45-27.95Q9.45-26 8.5-13.3L8.5-13.3ZM49.1-4.65Q49.95-3.8 49.95-2.55 49.95-1.3 49.1-0.45 48.25 0.4 47 0.4 45.75 0.4 44.9-0.45 44.05-1.3 44.05-2.55 44.05-3.8 44.9-4.65 45.75-5.5 47-5.5 48.25-5.5 49.1-4.65ZM74.5-8.95L74.5-8.95Q74.5-4.5 71.45-2.08 68.4 0.35 63.6 0.35L63.6 0.35Q58.3 0.35 54.6-1.8L54.6-1.8 54.6-6.15Q58.25-3.4 63.5-3.4L63.5-3.4Q66.65-3.4 68.45-4.8 70.25-6.2 70.25-8.85L70.25-8.85Q70.25-9.95 69.82-10.83 69.4-11.7 68.42-12.43 67.45-13.15 66.57-13.63 65.7-14.1 64.2-14.8L64.2-14.8Q63.9-14.95 63.3-15.2L63.3-15.2Q61.15-16.15 60.02-16.75 58.9-17.35 57.37-18.53 55.85-19.7 55.15-21.25 54.45-22.8 54.45-24.85L54.45-24.85Q54.45-29.15 57.52-31.58 60.6-34 65.25-34L65.25-34Q69.6-34 72.65-32.45L72.65-32.45 72.65-28.2Q69.6-30.2 65.35-30.2L65.35-30.2Q62.3-30.2 60.5-28.78 58.7-27.35 58.7-25.05L58.7-25.05Q58.7-23.85 59.17-22.9 59.65-21.95 60.85-21.13 62.05-20.3 62.9-19.88 63.75-19.45 65.55-18.65L65.55-18.65Q67.25-17.9 68.15-17.48 69.05-17.05 70.47-16.13 71.9-15.2 72.62-14.33 73.35-13.45 73.92-12.03 74.5-10.6 74.5-8.95ZM83.59-4.65Q84.44-3.8 84.44-2.55 84.44-1.3 83.59-0.45 82.74 0.4 81.49 0.4 80.24 0.4 79.39-0.45 78.54-1.3 78.54-2.55 78.54-3.8 79.39-4.65 80.24-5.5 81.49-5.5 82.74-5.5 83.59-4.65ZM113.64-5.95L113.64-1.7Q110.54 0.4 105.14 0.4L105.14 0.4Q97.54 0.4 92.79-4.28 88.04-8.95 88.04-17L88.04-17Q88.04-24.6 92.87-29.38 97.69-34.15 104.99-34.15L104.99-34.15Q110.24-34.15 113.54-32.35L113.54-32.35 113.54-28.2Q111.34-29.35 109.59-29.85 107.84-30.35 104.99-30.35L104.99-30.35Q99.54-30.35 95.92-26.65 92.29-22.95 92.29-17L92.29-17Q92.29-10.8 95.89-7.1 99.49-3.4 105.44-3.4L105.44-3.4Q110.24-3.4 113.64-5.95L113.64-5.95ZM121.99-4.65Q122.84-3.8 122.84-2.55 122.84-1.3 121.99-0.45 121.14 0.4 119.89 0.4 118.64 0.4 117.79-0.45 116.94-1.3 116.94-2.55 116.94-3.8 117.79-4.65 118.64-5.5 119.89-5.5 121.14-5.5 121.99-4.65Z" opacity="1" transform="matrix(1,0,0,1,0,0)" fill="#fe6e00" class="wordmark-text-0" data-fill-palette-color="primary" id="text-0"></path></svg></g></svg></g></svg></g></svg></g><g transform="matrix(1,0,0,1,25.990837871805617,0)"><svg viewBox="0 0 108.01832425638877 128.0217176372015" height="128.0217176372015" width="108.01832425638877"><g><svg xmlns="http://www.w3.org/2000/svg" xmlns:xlink="http://www.w3.org/1999/xlink" version="1.1" x="0" y="0" viewBox="0 0 54 64" style="enable-background:new 0 0 54 64;" xml:space="preserve" height="128.0217176372015" width="108.01832425638877" class="icon-icon-0" data-fill-palette-color="accent" id="icon-0"><path d="M45 39h-3.444C45.351 37.264 48 33.439 48 29v-6.465c2.405-0.817 4-1.983 4-3.535v-2c0-7.934-6.195-14.431-14-14.949V0h-2v2.051C28.195 2.569 22 9.066 22 17v2c0 1.552 1.594 2.718 4 3.535V29c0 4.439 2.649 8.264 6.444 10H29c-4.962 0-9 4.038-9 9v7h-5v-4c0-0.552-0.448-1-1-1h-1V36.064c3.059-1.49 5-4.584 5-8.064 0-3.449-2.289-6.261-4.431-7.743-0.306-0.213-0.704-0.236-1.033-0.063C12.207 20.366 12 20.707 12 21.079V27H6v-5.921c0-0.372-0.207-0.713-0.536-0.886-0.329-0.173-0.728-0.149-1.033 0.063C2.289 21.739 0 24.551 0 28c0 3.453 1.941 6.546 5 8.06V50H4c-0.552 0-1 0.448-1 1v12c0 0.552 0.448 1 1 1h10 6 1 1v-1-0.586l6.707-6.707C28.895 55.52 29 55.265 29 55V41h2v9c0 0.552 0.448 1 1 1h10c0.552 0 1-0.448 1-1v-9h2v14c0 0.265 0.105 0.52 0.293 0.707L52 62.414V64h2V48C54 43.038 49.962 39 45 39zM37 22c-6.1 0-10.087-1.063-11.888-2h23.775C47.087 20.937 43.1 22 37 22zM49.364 13H46c-1.654 0-3-1.346-3-3V5.479C45.995 7.045 48.306 9.74 49.364 13zM38 15V4.051c1.039 0.079 2.044 0.275 3 0.585V10c0 2.757 2.243 5 5 5h3.83c0.102 0.654 0.17 1.318 0.17 2v1H24v-1c0-0.682 0.069-1.346 0.17-2H28c2.757 0 5-2.243 5-5V4.636c0.956-0.31 1.961-0.506 3-0.585V15H38zM31 5.479V10c0 1.654-1.346 3-3 3h-3.364C25.694 9.74 28.005 7.045 31 5.479zM28 29v-5.903C30.656 23.706 33.878 24 37 24s6.344-0.294 9-0.903V29c0 4.962-4.038 9-9 9S28 33.962 28 29zM6.376 34.486C3.717 33.409 2 30.863 2 28c0-1.835 0.902-3.483 2-4.706V28c0 0.552 0.448 1 1 1h8c0.552 0 1-0.448 1-1v-4.706c1.098 1.223 2 2.871 2 4.706 0 2.888-1.714 5.433-4.368 6.483C11.25 34.634 11 35.003 11 35.413V50H7V35.413C7 35.006 6.753 34.639 6.376 34.486zM5 60h2v-2H5v-2h2v-2H5v-2h1 6 1v4 6H5V60zM20 62h-5v-5h5V62zM27 54.586l-5 5V56v-8c0-3.165 2.112-5.842 5-6.705V54.586zM41 49h-8v-8h8V49zM47 54.586V41.295c2.888 0.863 5 3.541 5 6.705v11.586L47 54.586z" fill="#fe6e00" data-fill-palette-color="accent"></path><path d="M44 29h-2c0 2.757-2.243 5-5 5v2C40.86 36 44 32.86 44 29z" fill="#fe6e00" data-fill-palette-color="accent"></path><path d="M42 53H32c-0.552 0-1 0.448-1 1v5c0 2.757 2.243 5 5 5h2c2.757 0 5-2.243 5-5v-5C43 53.448 42.552 53 42 53zM41 59c0 1.654-1.346 3-3 3h-2c-1.654 0-3-1.346-3-3v-4h8V59z" fill="#fe6e00" data-fill-palette-color="accent"></path></svg></g></svg></g><g></g></svg></g></svg></g></svg></g></svg></g><defs></defs></svg><rect width="320" height="360" fill="none" stroke="none" visibility="hidden"></rect></g></svg></g></svg>